<svg width="64" height="64" viewBox="0 0 64 64" fill="none" xmlns="http://www.w3.org/2000/svg">
  <rect width="64" height="64" rx="14" fill="#0b1026"/>
  <!-- stars -->
  <g fill="#cfe0ff">
    <circle cx="12" cy="14" r="1.1"/>
    <circle cx="52" cy="16" r="1.4"/>
    <circle cx="46" cy="9" r="0.9" opacity="0.8"/>
    <circle cx="20" cy="52" r="1.1" opacity="0.9"/>
    <circle cx="54" cy="48" r="1" opacity="0.75"/>
    <circle cx="9" cy="34" r="0.9" opacity="0.7"/>
  </g>
  <!-- graceful whale, line only -->
  <g stroke="#9fd0ff" stroke-width="2.4" stroke-linejoin="round" stroke-linecap="round" fill="none">
    <!-- body outline -->
    <path d="M13 38 C11 34 12 30 17 28 C27 23 40 25 46 31 L55 25 C53 31 53 35 55 41 L46 35 C42 40 33 42 25 41 C18 40 14 41 13 38 Z"/>
    <!-- pectoral fin -->
    <path d="M27 40 C28 45 31 47 35 47"/>
  </g>
  <!-- eye -->
  <circle cx="19" cy="34" r="1.5" fill="#9fd0ff"/>
</svg>
